<svg width="30" height="30" viewBox="0 0 30 30" fill="none" xmlns="http://www.w3.org/2000/svg">
<path d="M11.2618 13.4849C11.0228 13.2242 10.6118 13.2243 10.373 13.4851C10.1619 13.7156 10.162 14.0691 10.3731 14.2995L14.4541 18.7528C14.5255 18.8311 14.6104 18.8933 14.7039 18.9357C14.7973 18.9782 14.8976 19 14.9988 19C15.1001 19 15.2004 18.9782 15.2938 18.9357C15.3873 18.8933 15.4722 18.8311 15.5436 18.7528L19.6267 14.2995C19.8379 14.0691 19.8379 13.7156 19.6268 13.4852C19.388 13.2248 18.9774 13.2248 18.7386 13.4852L15.1843 17.3617C15.0852 17.4698 14.9148 17.4698 14.8157 17.3617L11.2618 13.4849Z" fill="#777777"/>
</svg>
