<svg width="64" height="64" viewBox="0 0 64 64" fill="none" xmlns="http://www.w3.org/2000/svg">
<path fill-rule="evenodd" clip-rule="evenodd" d="M32.0521 8C26.0294 8 20.5427 9.98933 17.2961 11.6147C17.0027 11.7613 16.7289 11.9044 16.4747 12.044C15.9707 12.3187 15.5414 12.5747 15.2001 12.8L18.8934 18.2373L20.6321 18.9293C27.4267 22.3573 36.5387 22.3573 43.3347 18.9293L45.3081 17.9053L48.8001 12.8C48.0759 12.3295 47.3239 11.9034 46.5481 11.524C43.3174 9.916 37.9614 8 32.0534 8M23.4641 14.1547C22.1565 13.9086 20.8649 13.5845 19.5961 13.184C22.6374 11.8333 27.1694 10.4 32.0534 10.4C35.4361 10.4 38.6347 11.088 41.2801 11.96C38.1801 12.396 34.8721 13.136 31.7201 14.0467C29.2401 14.764 26.3414 14.6867 23.4641 14.1547ZM44.7441 20.9067L44.4161 21.072C36.9414 24.8427 27.0267 24.8427 19.5521 21.072L19.2414 20.9147C8.01072 33.236 -0.56261 55.996 32.0521 55.996C64.6667 55.996 55.8854 32.8133 44.7441 20.9067ZM30.6667 32C29.9595 32 29.2812 32.281 28.7811 32.781C28.281 33.2811 28.0001 33.9594 28.0001 34.6667C28.0001 35.3739 28.281 36.0522 28.7811 36.5523C29.2812 37.0524 29.9595 37.3333 30.6667 37.3333V32ZM33.3334 29.3333V28H30.6667V29.3333C29.2522 29.3333 27.8957 29.8952 26.8955 30.8954C25.8953 31.8956 25.3334 33.2522 25.3334 34.6667C25.3334 36.0812 25.8953 37.4377 26.8955 38.4379C27.8957 39.4381 29.2522 40 30.6667 40V45.3333C29.5067 45.3333 28.5187 44.5933 28.1507 43.556C28.0961 43.3863 28.008 43.2292 27.8917 43.0942C27.7753 42.9591 27.6331 42.8487 27.4733 42.7696C27.3136 42.6904 27.1396 42.6441 26.9616 42.6334C26.7837 42.6227 26.6054 42.6478 26.4373 42.7072C26.2692 42.7666 26.1147 42.8591 25.983 42.9792C25.8513 43.0993 25.745 43.2447 25.6704 43.4066C25.5958 43.5685 25.5545 43.7438 25.5488 43.922C25.5431 44.1001 25.5733 44.2777 25.6374 44.444C26.005 45.4841 26.6861 46.3846 27.5868 47.0214C28.4875 47.6583 29.5636 48.0002 30.6667 48V49.3333H33.3334V48C34.7479 48 36.1044 47.4381 37.1046 46.4379C38.1048 45.4377 38.6667 44.0812 38.6667 42.6667C38.6667 41.2522 38.1048 39.8956 37.1046 38.8954C36.1044 37.8952 34.7479 37.3333 33.3334 37.3333V32C34.4934 32 35.4814 32.74 35.8494 33.7773C35.904 33.947 35.9921 34.1041 36.1084 34.2392C36.2248 34.3742 36.367 34.4846 36.5268 34.5638C36.6865 34.6429 36.8605 34.6892 37.0385 34.6999C37.2164 34.7106 37.3947 34.6856 37.5628 34.6262C37.7309 34.5668 37.8854 34.4743 38.0171 34.3541C38.1489 34.234 38.2552 34.0887 38.3297 33.9267C38.4043 33.7648 38.4457 33.5896 38.4513 33.4114C38.457 33.2332 38.4269 33.0557 38.3627 32.8893C37.9951 31.8493 37.314 30.9488 36.4133 30.3119C35.5126 29.675 34.4365 29.3332 33.3334 29.3333ZM33.3334 40V45.3333C34.0406 45.3333 34.7189 45.0524 35.219 44.5523C35.7191 44.0522 36.0001 43.3739 36.0001 42.6667C36.0001 41.9594 35.7191 41.2811 35.219 40.7811C34.7189 40.281 34.0406 40 33.3334 40Z" fill="white"/>
</svg>
