<svg width="24" height="24" viewBox="0 0 24 24" fill="none" xmlns="http://www.w3.org/2000/svg">
<path fill-rule="evenodd" clip-rule="evenodd" d="M14.752 1.914C14.1917 2.68512 13.8519 3.59423 13.7691 4.5438C13.6863 5.49337 13.8635 6.44758 14.2818 7.30406C14.7001 8.16054 15.3438 8.88697 16.1436 9.40543C16.9434 9.92389 17.8693 10.2148 18.822 10.247V10.258C18.837 10.456 18.852 10.659 18.872 10.855C19.109 13.102 19.649 14.645 20.168 15.658C20.513 16.333 20.852 16.781 21.092 17.052C21.1973 17.1715 21.3109 17.2834 21.432 17.387L21.442 17.393C21.5703 17.4861 21.6658 17.6175 21.7148 17.7683C21.7638 17.9191 21.7637 18.0815 21.7146 18.2323C21.6655 18.383 21.5699 18.5143 21.4415 18.6074C21.3131 18.7004 21.1585 18.7503 21 18.75H2.99997C2.84177 18.7498 2.68768 18.6996 2.55974 18.6066C2.4318 18.5135 2.33655 18.3824 2.28763 18.232C2.2387 18.0815 2.2386 17.9195 2.28733 17.769C2.33607 17.6184 2.43114 17.4872 2.55897 17.394L2.56697 17.387L2.63097 17.333C2.69097 17.279 2.78797 17.188 2.90797 17.052C3.14797 16.782 3.48697 16.334 3.83197 15.659C4.52197 14.31 5.24997 12.03 5.24997 8.4C5.24997 6.519 5.94997 4.706 7.20997 3.362C8.47197 2.016 10.194 1.25 12 1.25C12.3826 1.25 12.7603 1.28367 13.133 1.351C13.371 1.394 14.151 1.637 14.752 1.914Z" fill="#333333"/>
<path fill-rule="evenodd" clip-rule="evenodd" d="M15.2499 5C15.2499 4.00544 15.645 3.05161 16.3483 2.34835C17.0515 1.64509 18.0054 1.25 18.9999 1.25C19.9945 1.25 20.9483 1.64509 21.6516 2.34835C22.3548 3.05161 22.7499 4.00544 22.7499 5C22.7499 5.99456 22.3548 6.94839 21.6516 7.65165C20.9483 8.35491 19.9945 8.75 18.9999 8.75C18.0054 8.75 17.0515 8.35491 16.3483 7.65165C15.645 6.94839 15.2499 5.99456 15.2499 5ZM9.89391 20.351C9.97914 20.3016 10.0733 20.2695 10.1709 20.2565C10.2685 20.2435 10.3678 20.2498 10.463 20.2752C10.5581 20.3005 10.6474 20.3444 10.7256 20.4042C10.8039 20.4641 10.8695 20.5388 10.9189 20.624C11.0288 20.8133 11.1865 20.9704 11.3762 21.0796C11.5659 21.1889 11.781 21.2464 11.9999 21.2464C12.2188 21.2464 12.4339 21.1889 12.6236 21.0796C12.8133 20.9704 12.971 20.8133 13.0809 20.624C13.1304 20.5388 13.1961 20.4641 13.2744 20.4043C13.3527 20.3445 13.442 20.3007 13.5372 20.2754C13.6325 20.2501 13.7317 20.2438 13.8294 20.2568C13.9271 20.2699 14.0212 20.3021 14.1064 20.3515C14.1916 20.4009 14.2663 20.4667 14.3261 20.545C14.3859 20.6233 14.4297 20.7126 14.4551 20.8078C14.4804 20.903 14.4867 21.0023 14.4736 21.1C14.4605 21.1976 14.4284 21.2918 14.3789 21.377C14.1372 21.7938 13.7902 22.1399 13.3727 22.3804C12.9552 22.6209 12.4818 22.7476 11.9999 22.7476C11.5181 22.7476 11.0447 22.6209 10.6271 22.3804C10.2096 22.1399 9.86262 21.7938 9.62091 21.377C9.57137 21.2917 9.53914 21.1975 9.52605 21.0998C9.51296 21.002 9.51927 20.9027 9.54463 20.8074C9.56998 20.7121 9.61389 20.6227 9.67382 20.5444C9.73376 20.4661 9.80855 20.4004 9.89391 20.351Z" fill="#FC2220"/>
</svg>
