<svg width="24" height="24" viewBox="0 0 24 24" fill="none" xmlns="http://www.w3.org/2000/svg">
<path d="M10.763 21.9996C10.2903 21.9996 9.88349 21.8421 9.54245 21.5271C9.20142 21.2121 8.99553 20.8271 8.9248 20.3721L8.68846 18.6396C8.46087 18.5521 8.24658 18.4471 8.0456 18.3246C7.84462 18.2021 7.64749 18.0709 7.45422 17.9309L5.82607 18.6134C5.38839 18.8059 4.95072 18.8234 4.51304 18.6659C4.07537 18.5084 3.73398 18.2284 3.48888 17.8259L2.25464 15.6734C2.00954 15.2709 1.93951 14.8421 2.04455 14.3871C2.14959 13.9321 2.38594 13.5559 2.75359 13.2584L4.14539 12.2084C4.12789 12.0859 4.11913 11.9676 4.11913 11.8535V11.1447C4.11913 11.0313 4.12789 10.9134 4.14539 10.7909L2.75359 9.74088C2.38594 9.44338 2.14959 9.06713 2.04455 8.61213C1.93951 8.15713 2.00954 7.72838 2.25464 7.32588L3.48888 5.17338C3.73398 4.77088 4.07537 4.49088 4.51304 4.33338C4.95072 4.17588 5.38839 4.19338 5.82607 4.38588L7.45422 5.06838C7.64679 4.92838 7.84812 4.79713 8.05821 4.67463C8.26829 4.55213 8.47838 4.44713 8.68846 4.35963L8.9248 2.62713C8.99483 2.17213 9.20072 1.78713 9.54245 1.47213C9.88419 1.15713 10.2911 0.999634 10.763 0.999634H13.2315C13.7042 0.999634 14.1114 1.15713 14.4532 1.47213C14.7949 1.78713 15.0004 2.17213 15.0698 2.62713L15.3061 4.35963C15.5337 4.44713 15.7483 4.55213 15.95 4.67463C16.1517 4.79713 16.3485 4.92838 16.5404 5.06838L18.1685 4.38588C18.6062 4.19338 19.0439 4.17588 19.4815 4.33338C19.9192 4.49088 20.2606 4.77088 20.5057 5.17338L21.7399 7.32588C21.985 7.72838 22.0551 8.15713 21.95 8.61213C21.845 9.06713 21.6086 9.44338 21.241 9.74088L19.8492 10.7909C19.8667 10.9134 19.8754 11.0317 19.8754 11.1458V11.8535C19.8754 11.9676 19.8579 12.0859 19.8229 12.2084L21.2147 13.2584C21.5824 13.5559 21.8187 13.9321 21.9238 14.3871C22.0288 14.8421 21.9588 15.2709 21.7137 15.6734L20.4532 17.8259C20.2081 18.2284 19.8667 18.5084 19.429 18.6659C18.9913 18.8234 18.5537 18.8059 18.116 18.6134L16.5404 17.9309C16.3478 18.0709 16.1464 18.2021 15.9364 18.3246C15.7263 18.4471 15.5162 18.5521 15.3061 18.6396L15.0698 20.3721C14.9997 20.8271 14.7942 21.2121 14.4532 21.5271C14.1121 21.8421 13.7049 21.9996 13.2315 21.9996H10.763ZM12.0498 15.1746C13.0652 15.1746 13.9318 14.8159 14.6496 14.0984C15.3674 13.3809 15.7263 12.5146 15.7263 11.4996C15.7263 10.4846 15.3674 9.61838 14.6496 8.90088C13.9318 8.18338 13.0652 7.82463 12.0498 7.82463C11.0169 7.82463 10.1457 8.18338 9.43636 8.90088C8.72698 9.61838 8.37263 10.4846 8.37333 11.4996C8.37403 12.5146 8.72873 13.3809 9.43741 14.0984C10.1461 14.8159 11.0169 15.1746 12.0498 15.1746Z" fill="#777777"/>
</svg>
