<svg width="24" height="24" viewBox="0 0 24 24" fill="none" xmlns="http://www.w3.org/2000/svg">
<path fill-rule="evenodd" clip-rule="evenodd" d="M16.125 12C16.125 11.8011 16.046 11.6103 15.9053 11.4697C15.7647 11.329 15.5739 11.25 15.375 11.25H4.402L6.363 9.57C6.43785 9.50591 6.49935 9.42771 6.54398 9.33986C6.58861 9.25201 6.6155 9.15622 6.62312 9.05798C6.63073 8.95973 6.61892 8.86095 6.58836 8.76727C6.5578 8.67359 6.50909 8.58685 6.445 8.512C6.38092 8.43714 6.30271 8.37565 6.21486 8.33101C6.12701 8.28638 6.03123 8.25949 5.93298 8.25188C5.83474 8.24426 5.73596 8.25607 5.64228 8.28664C5.5486 8.3172 5.46185 8.36591 5.387 8.43L1.887 11.43C1.80467 11.5004 1.73856 11.5878 1.69324 11.6862C1.64791 11.7846 1.62444 11.8917 1.62444 12C1.62444 12.1083 1.64791 12.2154 1.69324 12.3138C1.73856 12.4122 1.80467 12.4996 1.887 12.57L5.387 15.57C5.53817 15.6994 5.73457 15.7635 5.93298 15.7481C6.1314 15.7327 6.31558 15.6392 6.445 15.488C6.57443 15.3368 6.6385 15.1404 6.62312 14.942C6.60774 14.7436 6.51417 14.5594 6.363 14.43L4.403 12.75H15.375C15.5739 12.75 15.7647 12.671 15.9053 12.5303C16.046 12.3897 16.125 12.1989 16.125 12Z" fill="#FC2220"/>
<path d="M9.375 8C9.375 8.702 9.375 9.053 9.544 9.306C9.61679 9.41478 9.71022 9.50821 9.819 9.581C10.072 9.75 10.423 9.75 11.125 9.75H15.375C15.9717 9.75 16.544 9.98705 16.966 10.409C17.3879 10.831 17.625 11.4033 17.625 12C17.625 12.5967 17.3879 13.169 16.966 13.591C16.544 14.0129 15.9717 14.25 15.375 14.25H11.125C10.423 14.25 10.072 14.25 9.819 14.418C9.71012 14.4911 9.61668 14.5849 9.544 14.694C9.375 14.947 9.375 15.298 9.375 16C9.375 18.828 9.375 20.243 10.254 21.121C11.132 22 12.546 22 15.374 22H16.374C19.204 22 20.617 22 21.496 21.121C22.375 20.243 22.375 18.828 22.375 16V8C22.375 5.172 22.375 3.757 21.496 2.879C20.617 2.001 19.203 2 16.375 2H15.375C12.546 2 11.132 2 10.254 2.879C9.375 3.757 9.375 5.172 9.375 8Z" fill="#FC2220"/>
</svg>
