<svg width="64" height="64" viewBox="0 0 64 64" fill="none" xmlns="http://www.w3.org/2000/svg">
<path fill-rule="evenodd" clip-rule="evenodd" d="M43.032 12.608L47.912 17.488C55.0827 24.6613 58.6667 28.2453 58.6667 32.6987C58.6667 37.1547 55.0827 40.7387 47.912 47.9093C40.7387 55.0827 37.1547 58.6667 32.6987 58.6667C28.2453 58.6667 24.6587 55.0827 17.488 47.912L12.608 43.032C8.48799 38.9093 6.42666 36.8507 5.66132 34.176C4.89332 31.5013 5.54932 28.6613 6.86132 22.984L7.61599 19.7093C8.71732 14.9307 9.26932 12.5413 10.904 10.904C12.5387 9.26666 14.9307 8.71733 19.7093 7.61599L22.984 6.85866C28.664 5.54933 31.5013 4.89333 34.176 5.65866C36.8507 6.42666 38.912 8.48799 43.032 12.608ZM29.7227 38.208C27.928 36.416 27.9413 33.84 29.016 31.8C28.7499 31.4157 28.6269 30.9504 28.6682 30.4848C28.7095 30.0193 28.9125 29.5829 29.2421 29.2514C29.5716 28.92 30.0068 28.7144 30.4722 28.6704C30.9375 28.6264 31.4035 28.7468 31.7893 29.0107C32.696 28.5307 33.6907 28.2747 34.6827 28.2853C35.2131 28.2903 35.7198 28.5057 36.0914 28.8843C36.463 29.2629 36.6689 29.7736 36.664 30.304C36.659 30.8344 36.4436 31.3412 36.065 31.7127C35.6864 32.0843 35.1758 32.2903 34.6453 32.2853C34.0279 32.3081 33.4443 32.5736 33.0213 33.024C31.9893 34.056 32.2587 35.0907 32.5493 35.3813C32.8427 35.672 33.8747 35.9413 34.9067 34.9093C36.9973 32.8187 40.608 32.1253 42.92 34.4373C44.7147 36.232 44.7013 38.808 43.6267 40.848C43.891 41.2324 44.0127 41.697 43.9707 42.1617C43.9286 42.6263 43.7255 43.0616 43.3964 43.3922C43.0673 43.7229 42.633 43.9281 42.1686 43.9724C41.7042 44.0166 41.239 43.8972 40.8533 43.6347C39.6567 44.2912 38.2686 44.51 36.928 44.2533C36.4082 44.1465 35.9521 43.8376 35.66 43.3945C35.3679 42.9514 35.2639 42.4105 35.3707 41.8907C35.4775 41.3708 35.7864 40.9147 36.2295 40.6227C36.6725 40.3306 37.2135 40.2265 37.7333 40.3333C38.2053 40.432 38.968 40.2773 39.6213 39.624C40.6533 38.5893 40.384 37.5573 40.0933 37.2667C39.8 36.976 38.768 36.7067 37.736 37.7387C35.6453 39.8293 32.0347 40.5227 29.7227 38.208ZM26.72 27.448C27.2152 26.9526 27.6079 26.3646 27.8758 25.7175C28.1438 25.0704 28.2816 24.3768 28.2815 23.6764C28.2813 22.976 28.1433 22.2825 27.8751 21.6354C27.607 20.9884 27.214 20.4005 26.7187 19.9053C26.2233 19.4102 25.6353 19.0174 24.9881 18.7495C24.341 18.4816 23.6474 18.3437 22.947 18.3439C22.2466 18.344 21.5531 18.4821 20.9061 18.7502C20.259 19.0184 19.6712 19.4113 19.176 19.9067C18.1759 20.9071 17.6143 22.2637 17.6145 23.6783C17.6148 25.0928 18.1769 26.4493 19.1773 27.4493C20.1777 28.4494 21.5344 29.011 22.9489 29.0108C24.3635 29.0105 25.7199 28.4484 26.72 27.448Z" fill="white"/>
</svg>
