<svg width="24" height="24" viewBox="0 0 24 24" fill="none" xmlns="http://www.w3.org/2000/svg">
<path d="M3.464 20.536C4.93 22 7.286 22 12 22C16.714 22 19.071 22 20.535 20.535C21.806 19.265 21.975 17.322 21.997 13.75H18.84C17.866 13.75 17.611 13.766 17.398 13.864C17.184 13.963 17.006 14.146 16.372 14.884L15.767 15.591L15.679 15.693C15.177 16.28 14.779 16.745 14.229 16.998C13.679 17.251 13.067 17.251 12.295 17.25H11.706C10.933 17.25 10.321 17.252 9.771 16.998C9.221 16.745 8.823 16.28 8.321 15.693L8.233 15.591L7.628 14.885C6.994 14.145 6.816 13.963 6.602 13.865C6.389 13.766 6.134 13.75 5.16 13.75H2.003C2.026 17.322 2.193 19.266 3.464 20.536Z" fill="#777777"/>
<path d="M20.536 3.464C19.07 2 16.714 2 12 2C7.286 2 4.929 2 3.464 3.464C2 4.93 2 7.286 2 12V12.25H5.295C6.067 12.25 6.679 12.248 7.229 12.502C7.779 12.755 8.177 13.22 8.679 13.807L8.767 13.909L9.372 14.615C10.006 15.355 10.184 15.537 10.398 15.635C10.611 15.734 10.866 15.75 11.84 15.75H12.16C13.134 15.75 13.389 15.734 13.602 15.636C13.816 15.537 13.994 15.354 14.628 14.616L15.233 13.909L15.321 13.807C15.823 13.22 16.221 12.755 16.771 12.502C17.321 12.248 17.933 12.249 18.706 12.25H22V12C22 7.286 22.001 4.929 20.536 3.464Z" fill="#777777"/>
</svg>
