<svg width="116" height="23" viewBox="0 0 116 23" fill="none" xmlns="http://www.w3.org/2000/svg">
<path d="M0.72 7V4.42H5.54V19H2.66V7H0.72ZM9.86609 19.14C9.35943 19.14 8.93943 18.9867 8.60609 18.68C8.28609 18.36 8.12609 17.9667 8.12609 17.5C8.12609 17.0333 8.28609 16.6467 8.60609 16.34C8.93943 16.02 9.35943 15.86 9.86609 15.86C10.3594 15.86 10.7661 16.02 11.0861 16.34C11.4061 16.6467 11.5661 17.0333 11.5661 17.5C11.5661 17.9667 11.4061 18.36 11.0861 18.68C10.7661 18.9867 10.3594 19.14 9.86609 19.14ZM14.3814 15.84C15.6614 14.7733 16.6814 13.8867 17.4414 13.18C18.2014 12.46 18.8347 11.7133 19.3414 10.94C19.8481 10.1667 20.1014 9.40667 20.1014 8.66C20.1014 7.98 19.9414 7.44667 19.6214 7.06C19.3014 6.67333 18.8081 6.48 18.1414 6.48C17.4747 6.48 16.9614 6.70667 16.6014 7.16C16.2414 7.6 16.0547 8.20667 16.0414 8.98H13.3214C13.3747 7.38 13.8481 6.16667 14.7414 5.34C15.6481 4.51333 16.7947 4.1 18.1814 4.1C19.7014 4.1 20.8681 4.50667 21.6814 5.32C22.4947 6.12 22.9014 7.18 22.9014 8.5C22.9014 9.54 22.6214 10.5333 22.0614 11.48C21.5014 12.4267 20.8614 13.2533 20.1414 13.96C19.4214 14.6533 18.4814 15.4933 17.3214 16.48H23.2214V18.8H13.3414V16.72L14.3814 15.84ZM40.5258 5.04V19H37.7258V9.92L33.9858 19H31.8658L28.1058 9.92V19H25.3058V5.04H28.4858L32.9258 15.42L37.3658 5.04H40.5258Z" fill="#75F94C"/>
<path d="M52.8997 22.94C51.6064 21.6867 50.5997 20.0867 49.8797 18.14C49.173 16.1933 48.8197 14.1067 48.8197 11.88C48.8197 9.6 49.193 7.46 49.9397 5.46C50.6864 3.44667 51.773 1.8 53.1997 0.52H56.0197V0.779999C54.553 2.18 53.433 3.86 52.6597 5.82C51.8997 7.78 51.5197 9.8 51.5197 11.88C51.5197 13.9067 51.8797 15.8667 52.5997 17.76C53.333 19.64 54.373 21.2733 55.7197 22.66V22.94H52.8997ZM58.3267 15.84C59.6067 14.7733 60.6267 13.8867 61.3867 13.18C62.1467 12.46 62.7801 11.7133 63.2867 10.94C63.7934 10.1667 64.0467 9.40667 64.0467 8.66C64.0467 7.98 63.8867 7.44667 63.5667 7.06C63.2467 6.67333 62.7534 6.48 62.0867 6.48C61.4201 6.48 60.9067 6.70667 60.5467 7.16C60.1867 7.6 60.0001 8.20667 59.9867 8.98H57.2667C57.3201 7.38 57.7934 6.16667 58.6867 5.34C59.5934 4.51333 60.7401 4.1 62.1267 4.1C63.6467 4.1 64.8134 4.50667 65.6267 5.32C66.4401 6.12 66.8467 7.18 66.8467 8.5C66.8467 9.54 66.5667 10.5333 66.0067 11.48C65.4467 12.4267 64.8067 13.2533 64.0867 13.96C63.3667 14.6533 62.4267 15.4933 61.2667 16.48H67.1667V18.8H57.2867V16.72L58.3267 15.84ZM69.8111 15.84C71.0911 14.7733 72.1111 13.8867 72.8711 13.18C73.6311 12.46 74.2644 11.7133 74.7711 10.94C75.2778 10.1667 75.5311 9.40667 75.5311 8.66C75.5311 7.98 75.3711 7.44667 75.0511 7.06C74.7311 6.67333 74.2378 6.48 73.5711 6.48C72.9044 6.48 72.3911 6.70667 72.0311 7.16C71.6711 7.6 71.4844 8.20667 71.4711 8.98H68.7511C68.8044 7.38 69.2778 6.16667 70.1711 5.34C71.0778 4.51333 72.2244 4.1 73.6111 4.1C75.1311 4.1 76.2978 4.50667 77.1111 5.32C77.9244 6.12 78.3311 7.18 78.3311 8.5C78.3311 9.54 78.0511 10.5333 77.4911 11.48C76.9311 12.4267 76.2911 13.2533 75.5711 13.96C74.8511 14.6533 73.9111 15.4933 72.7511 16.48H78.6511V18.8H68.7711V16.72L69.8111 15.84ZM81.9755 19.14C81.4688 19.14 81.0488 18.9867 80.7155 18.68C80.3955 18.36 80.2355 17.9667 80.2355 17.5C80.2355 17.0333 80.3955 16.6467 80.7155 16.34C81.0488 16.02 81.4688 15.86 81.9755 15.86C82.4688 15.86 82.8755 16.02 83.1955 16.34C83.5155 16.6467 83.6755 17.0333 83.6755 17.5C83.6755 17.9667 83.5155 18.36 83.1955 18.68C82.8755 18.9867 82.4688 19.14 81.9755 19.14ZM85.2708 7V4.42H90.0908V19H87.2108V7H85.2708ZM92.5369 8C92.5369 6.98667 92.8302 6.19333 93.4169 5.62C94.0169 5.04667 94.7835 4.76 95.7169 4.76C96.6502 4.76 97.4102 5.04667 97.9969 5.62C98.5969 6.19333 98.8969 6.98667 98.8969 8C98.8969 9.02667 98.5969 9.82667 97.9969 10.4C97.4102 10.9733 96.6502 11.26 95.7169 11.26C94.7835 11.26 94.0169 10.9733 93.4169 10.4C92.8302 9.82667 92.5369 9.02667 92.5369 8ZM105.377 5L97.5169 19H94.7969L102.637 5H105.377ZM95.6969 6.44C94.9635 6.44 94.5969 6.96 94.5969 8C94.5969 9.05333 94.9635 9.58 95.6969 9.58C96.0569 9.58 96.3369 9.45333 96.5369 9.2C96.7369 8.93333 96.8369 8.53333 96.8369 8C96.8369 6.96 96.4569 6.44 95.6969 6.44ZM101.317 15.98C101.317 14.9533 101.61 14.16 102.197 13.6C102.797 13.0267 103.564 12.74 104.497 12.74C105.43 12.74 106.184 13.0267 106.757 13.6C107.344 14.16 107.637 14.9533 107.637 15.98C107.637 17.0067 107.344 17.8067 106.757 18.38C106.184 18.9533 105.43 19.24 104.497 19.24C103.55 19.24 102.784 18.9533 102.197 18.38C101.61 17.8067 101.317 17.0067 101.317 15.98ZM104.477 14.42C103.717 14.42 103.337 14.94 103.337 15.98C103.337 17.0333 103.717 17.56 104.477 17.56C105.224 17.56 105.597 17.0333 105.597 15.98C105.597 14.94 105.224 14.42 104.477 14.42ZM109.039 22.94V22.66C110.386 21.2733 111.419 19.64 112.139 17.76C112.872 15.8667 113.239 13.9067 113.239 11.88C113.239 9.8 112.852 7.78 112.079 5.82C111.319 3.86 110.206 2.18 108.739 0.779999V0.52H111.559C112.986 1.8 114.072 3.44667 114.819 5.46C115.566 7.46 115.939 9.6 115.939 11.88C115.939 14.1067 115.579 16.1933 114.859 18.14C114.152 20.0867 113.152 21.6867 111.859 22.94H109.039Z" fill="black"/>
</svg>
