<svg width="131" height="23" viewBox="0 0 131 23" fill="none" xmlns="http://www.w3.org/2000/svg">
<path d="M8.9 10.68V13.04H0.42V10.68H8.9ZM19.2802 8.06C19.1468 7.5 18.9135 7.08 18.5802 6.8C18.2602 6.52 17.7935 6.38 17.1802 6.38C16.2602 6.38 15.5802 6.75333 15.1402 7.5C14.7135 8.23333 14.4935 9.43333 14.4802 11.1C14.8002 10.5667 15.2668 10.1533 15.8802 9.86C16.4935 9.55333 17.1602 9.4 17.8802 9.4C18.7468 9.4 19.5135 9.58667 20.1802 9.96C20.8468 10.3333 21.3668 10.88 21.7402 11.6C22.1135 12.3067 22.3002 13.16 22.3002 14.16C22.3002 15.1067 22.1068 15.9533 21.7202 16.7C21.3468 17.4333 20.7935 18.0067 20.0602 18.42C19.3268 18.8333 18.4535 19.04 17.4402 19.04C16.0535 19.04 14.9602 18.7333 14.1602 18.12C13.3735 17.5067 12.8202 16.6533 12.5002 15.56C12.1935 14.4533 12.0402 13.0933 12.0402 11.48C12.0402 9.04 12.4602 7.2 13.3002 5.96C14.1402 4.70667 15.4668 4.08 17.2802 4.08C18.6802 4.08 19.7668 4.46 20.5402 5.22C21.3135 5.98 21.7602 6.92667 21.8802 8.06H19.2802ZM17.2402 11.7C16.5335 11.7 15.9402 11.9067 15.4602 12.32C14.9802 12.7333 14.7402 13.3333 14.7402 14.12C14.7402 14.9067 14.9602 15.5267 15.4002 15.98C15.8535 16.4333 16.4868 16.66 17.3002 16.66C18.0202 16.66 18.5868 16.44 19.0002 16C19.4268 15.56 19.6402 14.9667 19.6402 14.22C19.6402 13.4467 19.4335 12.8333 19.0202 12.38C18.6202 11.9267 18.0268 11.7 17.2402 11.7ZM27.7531 14.9C27.8598 15.4867 28.0998 15.94 28.4731 16.26C28.8598 16.5667 29.3731 16.72 30.0131 16.72C30.8398 16.72 31.4398 16.38 31.8131 15.7C32.1865 15.0067 32.3731 13.8467 32.3731 12.22C32.0665 12.6467 31.6331 12.98 31.0731 13.22C30.5265 13.46 29.9331 13.58 29.2931 13.58C28.4398 13.58 27.6665 13.4067 26.9731 13.06C26.2931 12.7 25.7531 12.1733 25.3531 11.48C24.9531 10.7733 24.7531 9.92 24.7531 8.92C24.7531 7.44 25.1931 6.26667 26.0731 5.4C26.9531 4.52 28.1531 4.08 29.6731 4.08C31.5665 4.08 32.8998 4.68667 33.6731 5.9C34.4598 7.11333 34.8531 8.94 34.8531 11.38C34.8531 13.1133 34.6998 14.5333 34.3931 15.64C34.0998 16.7467 33.5865 17.5867 32.8531 18.16C32.1331 18.7333 31.1465 19.02 29.8931 19.02C28.9065 19.02 28.0665 18.8333 27.3731 18.46C26.6798 18.0733 26.1465 17.5733 25.7731 16.96C25.4131 16.3333 25.2065 15.6467 25.1531 14.9H27.7531ZM29.8731 11.3C30.5665 11.3 31.1131 11.0867 31.5131 10.66C31.9131 10.2333 32.1131 9.66 32.1131 8.94C32.1131 8.15333 31.8998 7.54667 31.4731 7.12C31.0598 6.68 30.4931 6.46 29.7731 6.46C29.0531 6.46 28.4798 6.68667 28.0531 7.14C27.6398 7.58 27.4331 8.16667 27.4331 8.9C27.4331 9.60667 27.6331 10.1867 28.0331 10.64C28.4465 11.08 29.0598 11.3 29.8731 11.3ZM37.0727 8.26C37.1393 6.92667 37.606 5.9 38.4727 5.18C39.3527 4.44667 40.506 4.08 41.9327 4.08C42.906 4.08 43.7393 4.25333 44.4327 4.6C45.126 4.93333 45.646 5.39333 45.9927 5.98C46.3527 6.55333 46.5327 7.20667 46.5327 7.94C46.5327 8.78 46.3127 9.49333 45.8727 10.08C45.446 10.6533 44.9327 11.04 44.3327 11.24V11.32C45.106 11.56 45.706 11.9867 46.1327 12.6C46.5727 13.2133 46.7927 14 46.7927 14.96C46.7927 15.76 46.606 16.4733 46.2327 17.1C45.8727 17.7267 45.3327 18.22 44.6127 18.58C43.906 18.9267 43.0527 19.1 42.0527 19.1C40.546 19.1 39.3193 18.72 38.3727 17.96C37.426 17.2 36.926 16.08 36.8727 14.6H39.5927C39.6193 15.2533 39.8393 15.78 40.2527 16.18C40.6793 16.5667 41.2593 16.76 41.9927 16.76C42.6727 16.76 43.1927 16.5733 43.5527 16.2C43.926 15.8133 44.1127 15.32 44.1127 14.72C44.1127 13.92 43.8593 13.3467 43.3527 13C42.846 12.6533 42.0593 12.48 40.9927 12.48H40.4127V10.18H40.9927C42.886 10.18 43.8327 9.54667 43.8327 8.28C43.8327 7.70667 43.6593 7.26 43.3127 6.94C42.9793 6.62 42.4927 6.46 41.8527 6.46C41.226 6.46 40.7393 6.63333 40.3927 6.98C40.0593 7.31333 39.866 7.74 39.8127 8.26H37.0727ZM49.8853 15.84C51.1653 14.7733 52.1853 13.8867 52.9453 13.18C53.7053 12.46 54.3386 11.7133 54.8453 10.94C55.352 10.1667 55.6053 9.40667 55.6053 8.66C55.6053 7.98 55.4453 7.44667 55.1253 7.06C54.8053 6.67333 54.312 6.48 53.6453 6.48C52.9786 6.48 52.4653 6.70667 52.1053 7.16C51.7453 7.6 51.5586 8.20667 51.5453 8.98H48.8253C48.8786 7.38 49.352 6.16667 50.2453 5.34C51.152 4.51333 52.2986 4.1 53.6853 4.1C55.2053 4.1 56.372 4.50667 57.1853 5.32C57.9986 6.12 58.4053 7.18 58.4053 8.5C58.4053 9.54 58.1253 10.5333 57.5653 11.48C57.0053 12.4267 56.3653 13.2533 55.6453 13.96C54.9253 14.6533 53.9853 15.4933 52.8253 16.48H58.7253V18.8H48.8453V16.72L49.8853 15.84Z" fill="#EB3223"/>
<path d="M70.4153 22.94C69.122 21.6867 68.1153 20.0867 67.3953 18.14C66.6886 16.1933 66.3353 14.1067 66.3353 11.88C66.3353 9.6 66.7086 7.46 67.4553 5.46C68.202 3.44667 69.2886 1.8 70.7153 0.52H73.5353V0.779999C72.0686 2.18 70.9486 3.86 70.1753 5.82C69.4153 7.78 69.0353 9.8 69.0353 11.88C69.0353 13.9067 69.3953 15.8667 70.1153 17.76C70.8486 19.64 71.8886 21.2733 73.2353 22.66V22.94H70.4153ZM74.6223 7V4.42H79.4423V19H76.5623V7H74.6223ZM85.4484 14.9C85.5551 15.4867 85.7951 15.94 86.1684 16.26C86.5551 16.5667 87.0684 16.72 87.7084 16.72C88.5351 16.72 89.1351 16.38 89.5084 15.7C89.8818 15.0067 90.0684 13.8467 90.0684 12.22C89.7618 12.6467 89.3284 12.98 88.7684 13.22C88.2218 13.46 87.6284 13.58 86.9884 13.58C86.1351 13.58 85.3618 13.4067 84.6684 13.06C83.9884 12.7 83.4484 12.1733 83.0484 11.48C82.6484 10.7733 82.4484 9.92 82.4484 8.92C82.4484 7.44 82.8884 6.26667 83.7684 5.4C84.6484 4.52 85.8484 4.08 87.3684 4.08C89.2618 4.08 90.5951 4.68667 91.3684 5.9C92.1551 7.11333 92.5484 8.94 92.5484 11.38C92.5484 13.1133 92.3951 14.5333 92.0884 15.64C91.7951 16.7467 91.2818 17.5867 90.5484 18.16C89.8284 18.7333 88.8418 19.02 87.5884 19.02C86.6018 19.02 85.7618 18.8333 85.0684 18.46C84.3751 18.0733 83.8418 17.5733 83.4684 16.96C83.1084 16.3333 82.9018 15.6467 82.8484 14.9H85.4484ZM87.5684 11.3C88.2618 11.3 88.8084 11.0867 89.2084 10.66C89.6084 10.2333 89.8084 9.66 89.8084 8.94C89.8084 8.15333 89.5951 7.54667 89.1684 7.12C88.7551 6.68 88.1884 6.46 87.4684 6.46C86.7484 6.46 86.1751 6.68667 85.7484 7.14C85.3351 7.58 85.1284 8.16667 85.1284 8.9C85.1284 9.60667 85.3284 10.1867 85.7284 10.64C86.1418 11.08 86.7551 11.3 87.5684 11.3ZM96.288 19.14C95.7813 19.14 95.3613 18.9867 95.028 18.68C94.708 18.36 94.548 17.9667 94.548 17.5C94.548 17.0333 94.708 16.6467 95.028 16.34C95.3613 16.02 95.7813 15.86 96.288 15.86C96.7813 15.86 97.188 16.02 97.508 16.34C97.828 16.6467 97.988 17.0333 97.988 17.5C97.988 17.9667 97.828 18.36 97.508 18.68C97.188 18.9867 96.7813 19.14 96.288 19.14ZM99.5833 7V4.42H104.403V19H101.523V7H99.5833ZM106.849 8C106.849 6.98667 107.143 6.19333 107.729 5.62C108.329 5.04667 109.096 4.76 110.029 4.76C110.963 4.76 111.723 5.04667 112.309 5.62C112.909 6.19333 113.209 6.98667 113.209 8C113.209 9.02667 112.909 9.82667 112.309 10.4C111.723 10.9733 110.963 11.26 110.029 11.26C109.096 11.26 108.329 10.9733 107.729 10.4C107.143 9.82667 106.849 9.02667 106.849 8ZM119.689 5L111.829 19H109.109L116.949 5H119.689ZM110.009 6.44C109.276 6.44 108.909 6.96 108.909 8C108.909 9.05333 109.276 9.58 110.009 9.58C110.369 9.58 110.649 9.45333 110.849 9.2C111.049 8.93333 111.149 8.53333 111.149 8C111.149 6.96 110.769 6.44 110.009 6.44ZM115.629 15.98C115.629 14.9533 115.923 14.16 116.509 13.6C117.109 13.0267 117.876 12.74 118.809 12.74C119.743 12.74 120.496 13.0267 121.069 13.6C121.656 14.16 121.949 14.9533 121.949 15.98C121.949 17.0067 121.656 17.8067 121.069 18.38C120.496 18.9533 119.743 19.24 118.809 19.24C117.863 19.24 117.096 18.9533 116.509 18.38C115.923 17.8067 115.629 17.0067 115.629 15.98ZM118.789 14.42C118.029 14.42 117.649 14.94 117.649 15.98C117.649 17.0333 118.029 17.56 118.789 17.56C119.536 17.56 119.909 17.0333 119.909 15.98C119.909 14.94 119.536 14.42 118.789 14.42ZM123.351 22.94V22.66C124.698 21.2733 125.731 19.64 126.451 17.76C127.185 15.8667 127.551 13.9067 127.551 11.88C127.551 9.8 127.165 7.78 126.391 5.82C125.631 3.86 124.518 2.18 123.051 0.779999V0.52H125.871C127.298 1.8 128.385 3.44667 129.131 5.46C129.878 7.46 130.251 9.6 130.251 11.88C130.251 14.1067 129.891 16.1933 129.171 18.14C128.465 20.0867 127.465 21.6867 126.171 22.94H123.351Z" fill="black"/>
</svg>
